# xmcd CD database file
#
# Track frame offsets:
#	150
#	12562
#	25757
#	37344
#	50968
#	65359
#	87218
#	109456
#	120278
#	132422
#	150746
#	164308
#	177591
#	190367
#	205049
#	215814
#	226528
#	239975
#	256455
#	268297
#
# Disc length: 3847 seconds
#
# Revision: 2
# Processed by: cddbd v1.5.1PL0 Copyright (c) Steve Scherf et al.
# Submitted via: CDex 1.51
#
DISCID=330f0514
DTITLE=Various Artist - Further Beyond Nashville - I Hear a Sweet Voice Calling
DYEAR=2002
DGENRE=Country
TTITLE0=Uncle Tupelo - Screen Door
TTITLE1=Louvin Brothers - The Family Who Prays
TTITLE2=Kitty Wells - It Wasn't God Who Made Honky Tonk Angels
TTITLE3=Alison Krauss and Union Station - Bright Sunny South
TTITLE4=Roy Acuff - Jole Blon
TTITLE5=Nitty Gritty Dirt Band - Will the Circle Be Unbroken
TTITLE6=Otha Turner and The Afrosippi Allstars - Station Blues
TTITLE7=The Original Harmony Ridge Creek Dippers - Be On My Way
TTITLE8=Ralph Stanley and The Clinch Mountain Boys - Rank Stranger
TTITLE9=Kristin Hersh - Sundrops
TTITLE10=Palace Brothers - Oh Lord Are You in need?
TTITLE11=Jerry Lee Lewis - You Win Again
TTITLE12=Hank Snow - I'm Movin' On
TTITLE13=Asleep At the Wheel - The Letter that Johnny Walker Read
TTITLE14=Buck Owens - Act Naturally
TTITLE15=Lovin' Spoonful - Darling Companion
TTITLE16=Waylon Jennings and Willie Nelson - Good Hearted Woman
TTITLE17=Laura Cantrell - Not the Tremblin' Kind
TTITLE18=Bobby Womack - I'd Be Ahead If I Could Quit While I'm Behind
TTITLE19=Janis Joplin - Me and Bobby McGee
EXTD=(c)2002  Union Square Music\nCD 1/2\nBox upc 698458221124\nBox Katalog: MANTDCD211 YEAR: 2002
EXTT0=
EXTT1=
EXTT2=
EXTT3=
EXTT4=
EXTT5=
EXTT6=
EXTT7=
EXTT8=
EXTT9=
EXTT10=
EXTT11=
EXTT12=
EXTT13=
EXTT14=
EXTT15=
EXTT16=
EXTT17=
EXTT18=
EXTT19=
PLAYORDER=
